<?xml version="1.0" standalone="no"?>
<!DOCTYPE svg PUBLIC "-//W3C//DTD SVG 20010904//EN"
 "http://www.w3.org/TR/2001/REC-SVG-20010904/DTD/svg10.dtd">
<svg version="1.0" xmlns="http://www.w3.org/2000/svg"
 width="956.000000pt" height="956.000000pt" viewBox="0 0 956.000000 956.000000"
 preserveAspectRatio="xMidYMid meet">
<metadata>
Created by potrace 1.14, written by Peter Selinger 2001-2017
</metadata>
<g transform="translate(0.000000,956.000000) scale(0.100000,-0.100000)"
fill="#000000" stroke="none">
<path d="M6367 7312 c-20 -15 -47 -43 -58 -62 -25 -42 -69 -90 -83 -90 -5 0
-19 8 -30 19 -12 10 -30 22 -42 25 -38 11 -48 -16 -52 -145 -5 -138 -32 -227
-74 -242 -13 -4 -35 -27 -50 -51 -26 -41 -27 -46 -14 -77 12 -29 12 -40 0 -74
-19 -56 -18 -68 16 -132 30 -56 39 -106 20 -118 -14 -8 -13 -80 2 -108 6 -12
14 -29 18 -37 4 -8 13 -16 21 -17 8 -1 35 -5 62 -8 35 -5 47 -11 47 -23 1 -26
25 -52 49 -52 27 0 61 -34 61 -60 0 -11 6 -29 12 -40 19 -30 -6 -47 -87 -60
-91 -15 -141 -7 -225 36 -64 33 -74 35 -127 29 -72 -9 -86 -16 -111 -57 -15
-25 -21 -57 -24 -136 -3 -57 -9 -107 -15 -113 -6 -6 -29 -5 -64 2 -75 16 -326
13 -494 -4 -165 -18 -375 -64 -533 -118 l-113 -38 -104 62 -104 62 -31 73
c-17 40 -37 104 -45 144 -14 63 -14 73 0 88 21 23 19 45 -7 63 l-23 15 38 76
c37 75 37 78 37 197 0 119 -1 123 -40 214 -56 132 -72 158 -110 177 -23 12
-43 36 -64 75 -17 32 -63 90 -102 128 -39 39 -86 90 -104 114 -39 51 -167 154
-227 184 -39 19 -43 19 -67 3 -14 -9 -26 -25 -26 -35 0 -10 -11 -26 -25 -35
-19 -12 -25 -25 -25 -51 0 -37 20 -55 63 -55 28 0 127 -75 127 -96 0 -20 -2
-19 -83 27 -40 23 -112 62 -161 86 l-89 44 -116 -15 c-123 -16 -398 -19 -407
-4 -3 5 -17 13 -31 19 -33 12 -60 -3 -68 -40 -4 -21 -19 -35 -58 -56 -29 -15
-62 -37 -73 -47 -18 -16 -29 -18 -65 -11 -41 8 -46 12 -74 68 -28 56 -33 60
-75 69 -30 6 -143 3 -338 -9 l-293 -19 -38 -29 -39 -29 -7 -109 c-3 -59 -4
-112 -1 -117 7 -11 20 -204 19 -276 -1 -39 3 -64 13 -73 8 -8 14 -31 14 -52 0
-42 14 -61 46 -61 13 0 26 -4 29 -10 3 -5 17 -10 30 -10 13 0 27 -4 30 -10 3
-5 25 -10 47 -10 22 0 57 -4 77 -9 20 -5 101 -17 181 -27 80 -9 149 -19 153
-21 4 -3 3 -11 -4 -19 -7 -9 -9 -29 -4 -56 4 -24 9 -95 11 -158 1 -63 3 -122
3 -130 1 -9 17 -40 36 -70 19 -30 35 -57 35 -60 0 -6 -60 -74 -123 -139 -34
-35 -316 -231 -332 -231 -17 0 -115 -98 -115 -115 0 -7 -13 -30 -28 -51 -15
-21 -34 -55 -42 -74 -8 -19 -28 -55 -45 -80 -18 -25 -53 -82 -79 -127 l-48
-82 12 -56 c13 -64 27 -75 99 -75 92 0 81 -10 -204 -195 -88 -57 -178 -117
-200 -132 -92 -65 -321 -151 -470 -178 -49 -9 -135 -27 -189 -41 -54 -13 -107
-24 -117 -24 -21 0 -79 -71 -78 -96 0 -18 117 -116 153 -130 8 -3 16 -15 18
-27 2 -13 18 -30 40 -42 39 -21 58 -50 58 -90 0 -13 5 -27 10 -30 6 -3 10 -15
10 -26 0 -21 67 -89 88 -89 6 0 12 -3 12 -7 0 -5 22 -23 50 -42 l50 -34 157 6
c87 4 171 10 187 13 22 5 28 4 24 -7 -3 -8 -13 -16 -24 -18 -29 -5 -44 -21
-44 -45 0 -19 13 -27 88 -51 82 -26 329 -104 398 -126 47 -14 65 -12 121 18
29 15 55 24 58 21 6 -5 -46 -108 -70 -138 -6 -8 -20 -35 -30 -60 -11 -25 -30
-64 -42 -87 -15 -27 -23 -59 -23 -89 0 -29 -10 -69 -26 -104 l-26 -58 31 -42
c17 -24 31 -53 31 -65 0 -11 4 -25 9 -30 16 -17 66 -118 81 -164 11 -34 12
-45 2 -49 -7 -2 -12 -9 -12 -16 0 -16 99 -119 131 -137 15 -8 45 -27 68 -42
24 -16 73 -37 109 -47 37 -10 110 -33 162 -52 112 -41 111 -41 175 -64 27 -9
75 -35 105 -56 30 -21 65 -38 77 -38 12 0 25 -4 28 -10 3 -5 14 -10 23 -10 10
0 38 -19 62 -43 43 -42 70 -98 70 -147 0 -13 10 -24 28 -31 25 -10 38 -9 102
5 20 5 36 -4 81 -46 31 -29 66 -72 78 -95 11 -23 25 -44 31 -48 11 -7 116 62
145 96 47 56 65 91 79 162 9 42 16 86 16 99 0 57 -79 150 -140 165 -27 6 -70
40 -70 55 0 5 -11 24 -24 41 -14 18 -36 55 -50 83 -24 48 -26 62 -26 188 0 75
4 136 9 136 5 0 12 16 15 35 4 19 10 35 15 35 4 0 22 -11 41 -25 19 -14 40
-25 48 -25 9 0 32 18 52 40 l38 41 23 -38 c39 -65 58 -80 203 -154 l141 -73
212 -1 c157 0 215 3 224 13 16 15 -1 111 -31 178 -22 52 -34 104 -23 104 4 0
13 -10 19 -23 23 -47 77 -143 88 -157 7 -8 16 -22 19 -31 8 -23 77 -31 194
-24 405 25 518 37 548 55 91 55 232 118 255 114 43 -9 73 34 77 109 4 75 8 87
28 87 17 0 38 19 80 75 31 42 43 57 85 109 14 17 61 84 103 149 55 82 84 117
98 117 13 0 19 -7 19 -21 0 -12 9 -37 21 -55 30 -49 12 -87 -58 -119 -65 -29
-76 -57 -43 -111 22 -34 22 -37 6 -70 -9 -19 -27 -40 -42 -46 -26 -12 -54 -64
-54 -100 0 -29 -28 -85 -77 -155 -24 -34 -43 -66 -43 -71 0 -5 -7 -22 -15 -39
-8 -16 -19 -52 -24 -79 -5 -27 -13 -57 -16 -66 -5 -11 2 -22 20 -34 16 -10 24
-23 20 -32 -3 -8 4 -30 15 -50 l21 -35 -21 -63 c-11 -35 -20 -68 -20 -75 0
-20 173 -179 195 -179 12 0 25 -4 31 -8 5 -5 29 -14 54 -21 25 -7 55 -17 68
-22 39 -15 58 -11 208 48 l146 58 82 90 c54 60 86 103 94 130 47 164 58 193
84 223 15 18 28 41 28 51 0 21 27 78 42 87 7 4 8 -7 3 -34 -4 -28 -2 -49 9
-71 18 -33 21 -72 7 -86 -6 -6 -3 -35 6 -73 14 -56 14 -64 0 -80 -8 -9 -18
-30 -22 -47 -4 -16 -16 -50 -27 -74 -11 -25 -21 -65 -22 -90 -2 -25 -5 -53 -8
-61 -3 -8 -14 -50 -23 -93 -10 -43 -22 -80 -27 -83 -4 -3 -8 -16 -8 -29 0 -13
-4 -26 -9 -29 -5 -3 -9 -16 -9 -28 0 -13 -11 -57 -25 -98 -13 -41 -32 -102
-42 -135 -16 -59 -48 -129 -84 -190 -10 -16 -32 -57 -50 -90 l-32 -60 28 -20
c14 -11 43 -34 62 -51 71 -61 170 -89 247 -71 40 10 56 47 80 182 15 82 29
121 78 220 34 66 65 134 71 150 24 72 147 294 166 300 12 4 35 38 59 85 25 49
47 81 60 85 20 6 70 97 70 125 0 7 11 21 24 31 14 11 50 70 81 132 30 62 88
175 128 252 71 138 72 140 122 160 91 37 167 97 216 172 76 116 94 192 79 340
l-10 100 -80 133 c-44 74 -78 135 -76 137 2 3 26 0 52 -6 27 -6 63 -13 79 -16
17 -4 39 -10 50 -14 48 -19 89 -30 93 -26 15 15 -16 36 -80 55 -40 12 -84 26
-98 30 -14 5 -42 11 -63 15 -43 7 -79 37 -71 59 4 10 -9 26 -38 46 l-43 31 7
77 c3 42 7 179 7 304 1 137 6 247 13 278 l12 52 41 -6 c61 -10 72 4 83 104 7
65 6 91 -4 111 -12 23 -10 29 27 72 22 25 54 79 70 119 27 62 31 85 30 151 -1
61 1 77 13 77 17 0 295 -141 372 -188 28 -18 56 -32 62 -32 7 0 28 32 47 70
39 77 42 78 118 55 76 -23 211 -28 293 -12 61 12 80 21 137 68 64 53 73 65
292 390 36 54 44 72 39 96 -5 27 -2 31 33 46 21 9 78 38 127 64 97 52 100 56
126 173 6 30 17 69 22 86 10 29 7 35 -57 114 -66 82 -70 85 -154 117 -126 48
-134 46 -209 -37 -62 -68 -107 -146 -132 -225 -7 -22 -16 -48 -21 -57 -5 -10
-9 -35 -9 -56 0 -26 -11 -53 -35 -91 -19 -29 -35 -55 -35 -58 0 -4 -11 -21
-25 -39 -14 -18 -25 -35 -25 -39 0 -3 -8 -18 -18 -33 -11 -15 -32 -47 -48 -72
-16 -25 -46 -65 -67 -90 l-38 -46 -71 34 c-67 33 -70 36 -64 64 9 46 -7 63
-76 82 -35 10 -126 37 -203 62 -177 56 -235 72 -350 94 -33 7 -79 18 -103 26
-23 8 -63 14 -87 14 -38 0 -45 3 -45 20 0 13 -12 25 -35 34 -19 8 -35 22 -35
31 0 9 -14 52 -31 96 -23 58 -34 78 -42 70 -28 -28 -97 -1 -83 34 6 18 66 21
83 4 8 -8 14 -5 23 11 9 16 18 21 36 17 33 -6 50 16 36 48 -7 14 -18 25 -27
25 -8 0 -15 5 -15 11 0 7 21 8 68 2 94 -11 280 -9 293 4 11 11 -29 64 -83 111
-34 29 -35 47 -5 67 43 28 57 85 22 85 -23 0 -63 22 -69 36 -10 26 50 80 104
95 28 8 51 19 51 24 0 12 -35 23 -78 24 -22 1 -33 6 -33 15 0 14 11 17 142 42
47 9 44 25 -13 78 -37 35 -78 61 -128 81 -40 16 -76 35 -79 43 -3 8 -6 46 -6
85 -1 69 -2 70 -31 79 -40 12 -68 26 -134 66 -37 21 -68 32 -95 32 -23 1 -57
9 -76 20 l-35 19 35 -1 c19 0 54 3 78 7 40 7 43 10 37 34 -4 20 0 32 14 45 30
27 17 36 -49 36 -47 0 -75 7 -135 35 -94 44 -206 57 -269 31 -54 -22 -117 -21
-149 4 -14 11 -35 20 -47 20 -13 0 -45 16 -71 35 -59 42 -91 44 -142 7z
m-4153 -474 c3 -24 10 -70 16 -103 13 -67 13 -96 4 -173 -5 -46 -10 -55 -33
-63 -25 -10 -264 -9 -274 1 -3 3 -7 81 -9 175 l-3 170 40 7 c109 19 154 25
201 27 l52 1 6 -42z m728 5 c21 -9 38 -22 38 -29 0 -7 -30 -26 -67 -44 -56
-26 -76 -30 -110 -25 -23 3 -47 12 -53 20 -10 12 -3 20 37 44 26 17 53 35 58
40 15 15 54 13 97 -6z m-462 -18 c0 -8 -4 -15 -10 -15 -5 0 -10 7 -10 15 0 8
5 15 10 15 6 0 10 -7 10 -15z m773 -328 c24 -52 13 -63 -71 -70 -125 -10 -152
13 -95 82 25 30 30 32 87 29 60 -3 61 -4 79 -41z m-624 -56 c10 -6 2 -16 -31
-39 -24 -17 -50 -37 -57 -46 -19 -22 -31 -20 -31 6 0 12 14 37 32 55 32 33 60
41 87 24z m3866 -72 c4 -5 4 -21 1 -35 -8 -30 -42 -30 -60 -1 -9 15 -7 21 8
33 23 17 42 18 51 3z m-277 -176 c3 -29 0 -33 -22 -33 -15 0 -30 8 -36 21 -17
31 -5 51 27 47 23 -2 29 -8 31 -35z m-3778 -348 c0 -16 -6 -25 -15 -25 -15 0
-21 31 -8 43 13 14 23 6 23 -18z m3425 -83 c4 -47 3 -63 -7 -67 -19 -6 -81 9
-85 21 -3 10 76 118 82 112 2 -2 6 -31 10 -66z m475 -36 c0 -37 -69 -83 -105
-70 -35 14 -10 79 38 99 39 16 67 4 67 -29z m-3093 8 c-3 -3 -12 -4 -19 -1 -8
3 -5 6 6 6 11 1 17 -2 13 -5z m1038 -142 c65 -63 77 -92 37 -92 -21 0 -51 31
-93 98 -53 85 -37 83 56 -6z m2221 16 c15 -50 -59 -90 -120 -64 -41 17 -47 43
-17 70 42 38 124 34 137 -6z m655 -681 c-7 -7 -13 -2 -21 17 -14 38 0 55 17
21 10 -19 12 -30 4 -38z m-127 -340 c13 -35 -6 -57 -32 -41 -22 14 -27 41 -11
60 16 20 32 13 43 -19z m-606 -1670 c2 -16 -4 -40 -14 -54 -16 -25 -17 -26
-30 -8 -27 37 -14 98 20 93 15 -2 22 -11 24 -31z m-4690 -39 c-5 -32 -28 -35
-28 -4 0 17 5 26 16 26 10 0 14 -7 12 -22z m4636 -170 c-7 -69 -11 -78 -28
-78 -28 0 -29 45 -4 89 12 22 26 41 30 41 4 0 5 -24 2 -52z m480 -441 c9 -15
6 -21 -14 -37 -29 -23 -76 -26 -83 -6 -3 8 3 27 15 41 23 30 64 31 82 2z"/>
</g>
</svg>
